<?xml version="1.0" encoding="UTF-8" standalone="no"?>
<svg
   xmlns:dc="http://purl.org/dc/elements/1.1/"
   xmlns:cc="http://creativecommons.org/ns#"
   xmlns:rdf="http://www.w3.org/1999/02/22-rdf-syntax-ns#"
   xmlns:svg="http://www.w3.org/2000/svg"
   xmlns="http://www.w3.org/2000/svg"
   version="1.1"
   id="svg2"
   viewBox="120 60 1638.1425 1518.3607"
   height="71.981544"
   width="87.367599">
  <metadata
     id="metadata21">
    <rdf:RDF>
      <cc:Work
         rdf:about="">
        <dc:format>image/svg+xml</dc:format>
        <dc:type
           rdf:resource="http://purl.org/dc/dcmitype/StillImage" />
        <dc:title></dc:title>
      </cc:Work>
    </rdf:RDF>
  </metadata>
  <defs
     id="defs19" />
  <path
     style="fill:#bc8f6c;stroke:#020C1C;stroke-width:50"
     d="m 391.64374,189.55233 c -65,23 -101,403 35,628 -14,269.99997 -38,550.99997 254,628.99997 244.00004,-101 242.00004,-294 221.00004,-632.99997 51,-105 201.00002,-458 66,-618 -136.00004,12 -234.00004,428 -207.00004,570 -15,-36 -157,-33 -174,0 26,-124 -118,-554 -197,-576"
     id="arnalf-contour" />
  <path
     style="fill:#020C1C;stroke:#020C1C;stroke-width:50"
     d="m 557.97374,1036.5523 c -22,35.33 28.34,61.67 48.34,37 24,-35 -22.67,-67 -48.67,-37"
     id="arnalf-left-eye" />
  <path
     style="fill:#020C1C;stroke:#020C1C;stroke-width:50"
     d="m 735.97374,1028.5523 c -22,35.33 28.34,61.67 48.34,37 24,-35 -22.67,-66.99995 -48.67,-37"
     id="arnalf-right-eye" />
  <path
     style="fill:#020C1C;stroke:#020C1C;stroke-width:50"
     d="m 644.97374,1274.5523 c -22,35.33 28.34,61.67 48.34,37 24,-35 -22.67,-67 -48.67,-37"
     id="arnalf-nose" />
  <path
     style="fill:none;stroke:#020C1C;stroke-width:50"
     d="m 121.64374,1320.5523 c 76.5,-34.5 415.5,-48 516,-34.5 m 61.5,0 c 41.5,-16.17 342.00006,-19.5 465.00006,10.5 m -909.00006,88.5 c 22.17,-30.5 354.17,-102.5 384.17,-93.17 m 465.33006,26.67 c -30,-19.5 -360.00006,-31 -405.00006,-21.5"
     id="arnalf-whiskers" />
  <path
     style="fill:#bc8f6c;stroke:#020C1C;stroke-width:50"
     d="m 1196.5845,783.25572 c -44,329.99998 45.67,489.32998 92,533.99998 12,12 88,106.67 166,106 44,-1.33 116,-74 152,-112 120,-116.67 130,-370.99995 92,-535.99998 33.62,-107.75 -96.65,-100.83 -92,-34 -22,-16 -281,-17 -314,4 -3.87,-89.47 -144.07,-60.28 -96,40 m 272,-48 m -221,-37"
     id="deneas-contour" />
  <path
     style="fill:#020C1C;stroke:#020C1C;stroke-width:50"
     d="m 1393.9145,1405.9257 c 21.67,-44.67 106.34,-21.34 104,0.66 -40.08,28.92 -75.66,14.67 -104.08,-0.58"
     id="deneas-nose" />
  <path
     style="fill:#020C1C;stroke:#020C1C;stroke-width:50"
     d="m 1335.3345,1034.2557 c -11.5,19.88 15.87,31.25 24.58,21 13.79,-18.12 -16.08,-32.25 -24.45,-21.25"
     id="deneas-left-eye" />
  <path
     style="fill:#020C1C;stroke:#020C1C;stroke-width:50"
     d="m 1509.3345,1038.2557 c -11.5,19.88 15.87,31.25 24.58,21 13.79,-18.12 -16.08,-32.25 -24.45,-21.25"
     id="deneas-right-eye" />
</svg>
