<?xml version="1.0" encoding="UTF-8" standalone="no"?>
<!DOCTYPE svg PUBLIC "-//W3C//DTD SVG 20010904//EN"
              "http://www.w3.org/TR/2001/REC-SVG-20010904/DTD/svg10.dtd">

<svg xmlns="http://www.w3.org/2000/svg"
     width="64px" height="64px"
     viewBox="120 60 1200 1350">
  <path id="contour"
        fill="none" stroke="#0E2446" stroke-width="50"
        d="M 393.00,93.00
           C 328.00,116.00 292.00,496.00 428.00,721.00
             414.00,991.00 390.00,1272.00 682.00,1350.00
             926.00,1249.00 924.00,1056.00 903.00,717.00
             954.00,612.00 1104.00,259.00 969.00,99.00
             833.00,111.00 735.00,527.00 762.00,669.00
             747.00,633.00 605.00,636.00 588.00,669.00
             614.00,545.00 470.00,115.00 391.00,93.00" />
  <path id="left_eye"
        fill="#0E2446" stroke="#0E2446" stroke-width="50"
        d="M 559.33,940.00
           C 537.33,975.33 587.67,1001.67 607.67,977.00
             631.67,942.00 585.00,910.00 559.00,940.00" />
  <path id="right_eye"
        fill="#0E2446" stroke="#0E2446" stroke-width="50"
        d="M 737.33,932.00
           C 715.33,967.33 765.67,993.67 785.67,969.00
             809.67,934.00 763.00,902.00 737.00,932.00" />
  <path id="nose"
        fill="#0E2446" stroke="#0E2446" stroke-width="50"
        d="M 646.33,1178.00
           C 624.33,1213.33 674.67,1239.67 694.67,1215.00
             718.67,1180.00 672.00,1148.00 646.00,1178.00" />
  <path id="Pfad #1"
        fill="none" stroke="#0E2446" stroke-width="50"
        d="M 123.00,1224.00
           C 199.50,1189.50 538.50,1176.00 639.00,1189.50M 700.50,1189.50
           C 742.00,1173.33 1042.50,1170.00 1165.50,1200.00M 256.50,1288.50
           C 278.67,1258.00 610.67,1186.00 640.67,1195.33M 1106.00,1222.00
           C 1076.00,1202.50 746.00,1191.00 701.00,1200.50" />


</svg>
