<?xml version="1.0" encoding="UTF-8" standalone="no"?>
<!DOCTYPE svg PUBLIC "-//W3C//DTD SVG 20010904//EN"
              "http://www.w3.org/TR/2001/REC-SVG-20010904/DTD/svg10.dtd">

<svg xmlns="http://www.w3.org/2000/svg"
     width="48px" height="64px"
     viewBox="130 -370 600 1400">
  <path id="contour"
        fill="none" stroke="#0E2446" stroke-width="50"
        d="M 174.00,292.00
           C 130.00,622.00 219.67,781.33 266.00,826.00
             278.00,838.00 354.00,932.67 432.00,932.00
             476.00,930.67 548.00,858.00 584.00,820.00
             704.00,703.33 714.00,449.00 676.00,284.00
             709.62,176.25 579.35,183.17 584.00,250.00
             562.00,234.00 303.00,233.00 270.00,254.00
             266.13,164.53 125.93,193.72 174.00,294.00M 446.00,246.00M 225.00,209.00" />
  <path id="nose"
        fill="#0E2446" stroke="#0E2446" stroke-width="50"
        d="M 371.33,914.67
           C 393.00,870.00 477.67,893.33 475.33,915.33
             435.25,944.25 399.67,930.00 371.25,914.75" />
  <path id="left_eye"
        fill="#0E2446" stroke="#0E2446" stroke-width="50"
        d="M 312.75,543.00
           C 301.25,562.88 328.62,574.25 337.33,564.00
             351.12,545.88 321.25,531.75 312.88,542.75" />
  <path id="right_eye"
        fill="#0E2446" stroke="#0E2446" stroke-width="50"
        d="M 486.75,547.00
           C 475.25,566.88 502.62,578.25 511.33,568.00
             525.12,549.88 495.25,535.75 486.88,546.75" />
</svg>
