<?xml version="1.0" standalone="no"?>
<!DOCTYPE svg PUBLIC "-//W3C//DTD SVG 20010904//EN"
 "http://www.w3.org/TR/2001/REC-SVG-20010904/DTD/svg10.dtd">
<svg version="1.0" xmlns="http://www.w3.org/2000/svg"
 width="696.000000pt" height="696.000000pt" viewBox="0 0 696.000000 696.000000"
 preserveAspectRatio="xMidYMid meet">
<metadata>
Created by potrace 1.11, written by Peter Selinger 2001-2013
</metadata>
<g transform="translate(0.000000,696.000000) scale(0.100000,-0.100000)"
fill="#000000" stroke="none">
<path d="M1439 5935 c-1 -3 -2 -8 -3 -12 -2 -5 -8 -20 -16 -35 l-13 -27 -17
31 c-9 18 -22 34 -28 36 -19 6 -95 -79 -125 -139 -28 -57 -66 -166 -73 -209
-2 -14 -9 -45 -14 -70 -12 -55 -28 -169 -38 -270 -14 -155 -7 -586 13 -725 3
-16 7 -50 10 -75 4 -38 13 -91 30 -185 10 -51 17 -84 31 -140 8 -33 17 -70 19
-82 3 -12 10 -35 16 -50 6 -16 10 -29 10 -30 -1 -5 7 -28 49 -148 36 -102 124
-297 150 -330 8 -10 6 -83 -6 -330 -14 -264 -8 -675 11 -830 8 -65 16 -125 21
-148 2 -12 6 -38 9 -59 8 -52 44 -188 56 -210 5 -10 7 -18 4 -18 -3 0 1 -14
10 -30 l16 -30 -33 -1 c-92 -3 -297 -15 -403 -24 -22 -2 -76 -6 -120 -10 -44
-3 -98 -8 -120 -11 -22 -3 -58 -7 -80 -9 -22 -2 -51 -6 -65 -9 -14 -3 -44 -8
-65 -10 -96 -11 -291 -58 -306 -73 -4 -5 6 -42 22 -83 16 -41 29 -81 29 -88 0
-9 5 -10 18 -3 23 12 173 48 237 57 28 3 59 8 70 11 11 2 34 6 50 7 17 2 59 7
95 10 36 4 83 9 105 12 22 3 65 7 95 9 165 9 267 17 283 21 9 3 17 1 17 -3 0
-5 -28 -16 -62 -25 -51 -13 -131 -36 -253 -72 -56 -17 -215 -89 -229 -105 -14
-15 -10 -22 49 -80 l64 -63 88 35 c84 33 135 51 140 49 2 -1 20 5 42 13 22 7
42 11 45 8 3 -4 6 -2 6 4 0 5 6 10 13 10 6 0 106 24 221 53 l208 52 31 -39
c99 -125 269 -258 422 -332 129 -61 245 -107 245 -95 0 4 6 2 13 -3 27 -22 83
-24 128 -4 24 11 49 21 54 22 6 1 27 13 48 26 20 13 37 21 37 18 0 -6 111 61
190 115 56 38 130 101 183 155 43 44 157 191 157 203 0 10 36 23 43 16 2 -3
58 -7 123 -10 315 -14 435 -25 650 -60 29 -5 31 -3 44 38 16 52 28 68 43 63 7
-2 30 -7 52 -10 68 -10 82 -13 103 -19 24 -8 23 -9 46 109 2 11 7 32 11 47 5
20 3 28 -6 29 -15 1 -31 3 -89 15 -19 3 -44 8 -55 9 -11 2 -38 6 -60 9 -22 3
-63 8 -90 11 -28 2 -50 5 -50 5 0 1 -25 3 -55 5 -200 16 -353 23 -497 24 l-82
1 15 52 c16 52 21 72 30 118 3 14 7 33 10 43 3 10 7 32 9 50 3 18 7 52 11 77
3 25 7 56 9 70 25 191 24 658 -2 1045 -10 154 -8 177 22 240 85 185 173 406
235 596 24 73 34 105 56 184 18 64 37 134 40 149 2 10 8 33 13 50 6 17 12 45
15 61 3 17 14 82 26 145 28 158 33 220 34 405 0 148 -6 246 -20 306 -3 13 -9
40 -13 59 -19 84 -103 285 -131 310 -3 3 -25 31 -49 64 -42 57 -44 58 -80 51
-20 -3 -46 -8 -58 -10 -65 -10 -174 -76 -247 -150 -39 -40 -136 -167 -149
-195 -4 -8 -16 -28 -26 -45 -30 -47 -160 -322 -160 -338 0 -1 -5 -15 -11 -32
-7 -16 -13 -37 -15 -45 -2 -8 -10 -33 -19 -55 -15 -40 -47 -148 -48 -162 0 -5
-4 -15 -9 -24 -7 -14 -15 -44 -23 -89 -2 -8 -6 -22 -9 -30 -4 -8 -9 -26 -11
-40 -3 -14 -7 -34 -10 -45 -21 -89 -28 -124 -32 -150 -2 -16 -6 -41 -10 -55
-3 -14 -7 -34 -9 -45 -1 -11 -6 -38 -9 -60 -4 -22 -9 -60 -12 -85 -3 -25 -7
-56 -9 -70 -8 -55 -19 -229 -19 -288 l0 -64 -30 7 c-72 17 -311 12 -396 -7
-14 -3 -16 3 -24 105 -6 72 -12 122 -22 177 -2 14 -7 43 -10 65 -3 22 -8 47
-10 55 -3 8 -8 26 -10 40 -2 14 -9 46 -15 71 -6 26 -12 53 -13 60 -2 8 -5 21
-8 29 -3 8 -20 71 -38 140 -33 126 -139 460 -164 515 -7 17 -27 66 -44 110
-56 147 -161 368 -215 452 -15 24 -27 45 -27 48 0 11 -105 141 -133 164 -33
28 -96 64 -98 56z"/>
<path d="M4535 4038 c-78 -21 -157 -90 -191 -168 -22 -52 -25 -188 -5 -237 15
-37 16 -52 6 -133 -11 -92 -13 -112 -21 -230 -8 -122 -11 -510 -4 -510 3 0 5
-21 6 -48 1 -72 19 -236 39 -352 11 -61 54 -235 69 -278 9 -23 13 -42 9 -42
-3 0 0 -6 6 -14 7 -8 14 -24 16 -36 8 -39 127 -287 156 -324 5 -6 30 -38 55
-71 66 -84 256 -271 339 -333 86 -65 209 -127 292 -147 73 -19 173 -14 230 11
21 9 43 17 48 18 14 3 99 59 103 69 2 4 10 7 17 7 7 0 15 3 17 8 2 4 23 23 48
42 62 48 145 127 261 245 85 87 112 118 172 196 31 40 155 278 161 311 2 7 8
26 15 43 19 45 61 195 75 265 33 168 44 245 55 405 8 106 6 437 -3 502 -3 21
-8 66 -11 101 -4 35 -8 73 -11 85 -2 12 -7 38 -10 57 -6 45 -22 132 -25 145
-1 6 1 30 5 55 4 25 8 53 10 64 2 15 -7 83 -17 131 -1 6 -13 27 -25 47 -101
164 -355 165 -471 2 -18 -24 -36 -42 -41 -39 -28 17 -647 26 -818 12 -100 -9
-187 -19 -191 -23 -5 -5 -31 23 -31 34 0 5 -20 30 -45 55 -74 75 -181 103
-290 75z"/>
</g>
</svg>
